<svg width="118px" height="50px" viewBox="0 0 236 52" version="1.1" xmlns="http://www.w3.org/2000/svg" xmlns:xlink="http://www.w3.org/1999/xlink">
    <title>百度智能云</title>
    <g id="cloud-header-logo" stroke="none" stroke-width="1" fill="none" fill-rule="evenodd">
        <rect id="矩形" x="0" y="0" width="236" height="100"></rect>
        <g id="资源-4" fill-rule="nonzero">
            <g id="Layer1_0_MEMBER_3_MEMBER_0_MEMBER_0_MEMBER_0_FILL" transform="translate(56.401660, 10.601383)" fill="#282828">
                <path d="M17.8224066,8.63070539 L19.2608575,4.3153527 L33.4295989,4.3153527 L33.4295989,0 L0,0 L0,4.3153527 L12.6439834,4.3153527 L13.2193638,4.3153527 L11.8528354,8.63070539 L1.56791148,8.63070539 L1.56791148,32.5521438 L27.6757953,32.5521438 C28.7798844,32.625187 29.8643641,32.2341486 30.6677732,31.4733057 C31.4368271,30.7174804 31.8541762,29.6741077 31.8185339,28.5964039 L31.8185339,8.63070539 L17.8224066,8.63070539 M6.89017981,18.3546335 L6.89017981,12.7159059 L26.5969571,12.7159059 L26.5969571,18.3546335 L6.89017981,18.3546335 M6.89017981,22.3679115 L26.6688797,22.3679115 L26.6688797,26.3811895 C26.6803028,26.9057426 26.5014672,27.4167013 26.1654219,27.8196404 C25.808458,28.154712 25.3311218,28.3311188 24.842047,28.3087137 L6.89017981,28.3087137 L6.89017981,22.3679115 Z" id="形状"></path>
            </g>
            <g id="Layer1_0_MEMBER_4_MEMBER_0_MEMBER_0_MEMBER_0_FILL" transform="translate(100.116183, 16.038728)" fill="#282828">
                <path d="M2.8769018,0 L2.8769018,1.22268326 L0,1.22268326 L0,4.9626556 L2.8769018,4.9626556 L2.8769018,11.5363762 L20.9438451,11.5363762 C21.5258927,11.5358757 22.0861343,11.3148629 22.5117566,10.9178423 C22.9160223,10.4910207 23.1379179,9.92338071 23.1302905,9.33554633 L23.1302905,5.02019364 L26.1510373,5.02019364 L26.1510373,1.22268326 L23.1302905,1.22268326 L23.1302905,0.028769018 L18.4409405,0.028769018 L18.4409405,1.22268326 L7.56625173,1.22268326 L7.56625173,0.028769018 L2.8769018,0.028769018 M7.56625173,7.79640387 L7.56625173,4.91950207 L18.4409405,4.91950207 L18.4409405,6.60248963 C18.4409405,7.35048409 18.0813278,7.72448133 17.3621024,7.72448133 L7.56625173,7.79640387 Z" id="形状"></path>
            </g>
            <g id="Layer1_0_MEMBER_5_MEMBER_0_MEMBER_0_MEMBER_0_FILL" transform="translate(92.578700, 8.817704)" fill="#282828">
                <path d="M15.8085754,1.27760105e-15 L15.8085754,1.82683264 L1.19391425,1.82683264 L1.19391425,26.4099585 C1.31500205,29.0997075 0.909434306,31.7872046 0,34.3214385 L4.9626556,34.3214385 C5.58016377,31.7307654 5.87011937,29.072839 5.82572614,26.4099585 L5.82572614,5.56680498 L33.6885201,5.56680498 L33.6885201,1.82683264 L21.3897649,1.82683264 L21.3897649,1.27760105e-15 L15.8085754,1.27760105e-15 Z" id="路径"></path>
            </g>
            <g id="Layer1_0_MEMBER_6_MEMBER_0_MEMBER_0_MEMBER_0_FILL" transform="translate(99.713416, 29.675242)" fill="#282828">
                <path d="M1.19391425,0.0863070539 L1.19391425,4.40165975 L8.4868603,8.42932227 L8.86085754,8.67385892 L8.41493776,8.8033195 C7.32566973,9.2949454 6.16526328,9.61053711 4.97704011,9.73831259 L0,9.73831259 L0,13.4782849 L5.46611342,13.4782849 C6.95251268,13.4782849 9.52733979,12.6200092 13.1905947,10.9034578 L13.1905947,10.8315353 L13.3200553,10.8315353 L13.3200553,10.9034578 C17.0312586,12.6200092 19.6012909,13.4782849 21.0301521,13.4782849 L26.5538036,13.4782849 L26.5538036,9.69515906 L21.591148,9.69515906 C20.3868994,9.55426871 19.2094786,9.23932076 18.0957123,8.76016598 L17.6497925,8.63070539 L25.2879668,4.3153527 L25.2879668,0 L1.19391425,0 M7.29294606,3.76874136 L7.40802213,3.32282158 L19.1457815,3.32282158 L19.217704,3.76874136 C18.8005533,3.98450899 17.7792531,4.51673582 16.0099585,5.33665284 C14.2406639,6.15656985 13.535823,6.47302905 13.3200553,6.53056708 C12.304868,6.18165678 11.3148082,5.76352473 10.3568465,5.2791148 C8.5923467,4.44481328 7.57104657,3.97012448 7.29294606,3.85504841 L7.29294606,3.76874136 Z" id="形状"></path>
            </g>
            <g id="Layer1_0_MEMBER_7_MEMBER_0_MEMBER_0_MEMBER_0_FILL" transform="translate(202.936653, 22.051452)" fill="#282828">
                <path d="M30.9266943,11.1048409 L26.4674965,11.1048409 L26.4674965,15.4201936 C26.4630333,15.7717226 26.3299903,16.1094472 26.0934993,16.3695712 C25.8460101,16.6167264 25.5081744,16.7518607 25.1585062,16.7435685 L5.33665284,16.7435685 L10.4719225,4.38727524 L31.5308437,4.38727524 L31.5308437,0 L0,0 L0,4.40165975 L5.52365145,4.40165975 L0.258921162,17.3477178 L0.258921162,21.1020747 L26.9709544,21.1020747 C28.0100777,21.1267559 29.0119276,20.7145364 29.7327801,19.9656985 C30.523819,19.2215703 30.9584083,18.1743672 30.9266943,17.0887967 L30.9266943,11.1048409 Z" id="路径"></path>
            </g>
            <g id="Layer1_0_MEMBER_8_MEMBER_0_MEMBER_0_MEMBER_0_FILL" transform="translate(203.799723, 10.198617)" fill="#282828">
                <polygon id="路径" points="30.5526971 4.40165975 30.5526971 0 0 0 0 4.40165975"></polygon>
            </g>
            <g id="Layer1_0_MEMBER_9_MEMBER_0_MEMBER_0_MEMBER_0_FILL" transform="translate(130.222960, 9.522545)" fill="#282828">
                <path d="M6.76071923,1.30899032 L7.71009682,0 L2.80497925,0 L1.61106501,1.61106501 C1.44672462,1.86071399 1.16139396,2.00337932 0.863070539,1.98506224 L0,1.98506224 L0,5.88326418 L1.98506224,5.88326418 C2.63576044,5.88049654 3.26183655,5.63417151 3.73997234,5.19280775 L6.12780083,5.19280775 L6.12780083,6.89017981 L0.115076072,6.89017981 L0.115076072,10.7739972 L5.4373444,10.7739972 L4.74688797,12.039834 C4.52450289,12.4198027 4.1224774,12.6588449 3.6824343,12.6727524 L0.186998617,12.6727524 L0.186998617,16.6716459 L4.3153527,16.6716459 C5.47637408,16.6637476 6.55635452,16.0751583 7.1922545,15.1037344 L8.38616874,13.3488243 L10.2130014,15.5496542 C10.8753126,16.2606344 11.8017837,16.6666161 12.773444,16.6716459 L16.5421853,16.6716459 L16.5421853,12.6727524 L13.62213,12.6727524 C13.2948276,12.6331882 12.9880576,12.4923757 12.744675,12.2699862 L11.6226833,10.8315353 L16.9449516,10.8315353 L16.9449516,6.94771784 L10.7452282,6.94771784 L10.7452282,5.19280775 L16.8874136,5.19280775 L16.8874136,1.30899032 L6.76071923,1.30899032 Z" id="路径"></path>
            </g>
            <g id="Layer1_0_MEMBER_10_MEMBER_0_MEMBER_0_MEMBER_0_FILL" transform="translate(148.160443, 10.069156)" fill="#282828">
                <path d="M13.7803596,15.0030429 C14.5683112,14.2567853 15.0022999,13.2110294 14.9742739,12.1261411 L14.9742739,0 L0,0 L0,16.1969571 L10.9897649,16.1969571 C12.0743143,16.2231639 13.1193603,15.7894698 13.8666667,15.0030429 M10.342462,11.5076072 C10.0677062,11.7576123 9.7068855,11.8916314 9.33554633,11.8816044 L4.3153527,11.8816044 L4.3153527,4.3153527 L10.7883817,4.3153527 L10.7883817,10.5726141 C10.7610148,10.9288413 10.6020589,11.2621358 10.342462,11.5076072 L10.342462,11.5076072 Z" id="形状"></path>
            </g>
            <g id="Layer1_0_MEMBER_11_MEMBER_0_MEMBER_0_MEMBER_0_FILL" transform="translate(131.014108, 27.143568)" fill="#282828">
                <path d="M31.3006916,0 L0,0 L0,16.0099585 L27.3305671,16.0099585 C29.5308013,15.9636759 31.2989512,14.1828055 31.3294606,11.982296 L31.3294606,0 M4.32973721,5.82572614 L4.32973721,4.14273859 L27.0428769,4.14273859 L27.0428769,5.82572614 L4.32973721,5.82572614 M26.7839557,11.6946058 C26.5977745,11.8605702 26.3572969,11.952668 26.1078838,11.953527 L4.32973721,11.953527 L4.32973721,10.0260028 L27.0428769,10.0260028 L27.0428769,10.9609959 C27.0522224,11.2294422 26.9597326,11.4914968 26.7839557,11.6946058 L26.7839557,11.6946058 Z" id="形状"></path>
            </g>
            <g id="Layer1_0_MEMBER_12_MEMBER_0_MEMBER_0_MEMBER_0_FILL" transform="translate(167.076072, 9.565698)" fill="#282828">
                <path d="M13.0467497,10.0979253 C13.9410518,10.1092297 14.800166,9.74996377 15.4201936,9.10539419 C16.0747175,8.51519625 16.4418941,7.67068998 16.4271093,6.78948824 L16.4271093,4.14273859 L12.4282158,4.14273859 L12.4282158,5.22157676 C12.4282158,5.79695712 12.1117566,6.0846473 11.4788382,6.0846473 L5.88326418,6.0846473 L10.5294606,0 L5.20719225,0 L0,6.66002766 L0,10.0979253 L13.0467497,10.0979253 Z" id="路径"></path>
            </g>
            <g id="Layer1_0_MEMBER_13_MEMBER_0_MEMBER_0_MEMBER_0_FILL" transform="translate(184.522241, 9.709544)" fill="#282828">
                <path d="M10.0857816,6.94771784 C11.1055462,6.97420978 12.0885786,6.56635592 12.7900693,5.82572614 C13.4955272,5.08171026 13.8781639,4.08892317 13.8545229,3.06390041 L13.8545229,0.186998617 L9.53917025,0.186998617 L9.53917025,1.94190871 C9.53917025,2.44536653 9.28024908,2.68990318 8.76240676,2.68990318 L4.13059487,2.68990318 L4.13059487,0 L0.0022407856,0 L0.0022407856,11.8672199 C-0.0350461752,12.9509128 0.394468729,13.9985102 1.18177052,14.7441217 C1.92802812,15.5320733 2.973784,15.966062 4.05867232,15.938036 L14.4586723,15.938036 L14.4586723,11.7089903 L5.35327813,11.7089903 C5.03891146,11.7080113 4.74018078,11.5717482 4.53336112,11.3349931 C4.29236165,11.1375774 4.15464607,10.8409593 4.15936388,10.5294606 L4.15936388,6.94771784 L10.0857816,6.94771784 Z" id="路径"></path>
            </g>
            <g id="Layer1_0_MEMBER_14_MEMBER_0_MEMBER_0_MEMBER_0_FILL" transform="translate(184.653195, 27.014108)" fill="#282828">
                <path d="M9.53767655,2.51728907 C9.53767655,2.96320885 9.3075244,3.193361 8.83283561,3.193361 L4.12910117,3.193361 L4.12910117,0 L0.00074708814,0 L0.00074708814,12.0542185 C-0.0203600459,13.1349494 0.406577356,14.1762602 1.18027683,14.9311203 C1.95296391,15.6711192 2.98751413,16.0745938 4.05717862,16.053112 L14.4571786,16.053112 L14.4571786,11.9103734 L5.22232385,11.9103734 C4.92090487,11.9154894 4.62846022,11.8077466 4.40240684,11.6082988 C4.16969386,11.3688467 4.03609958,11.0502757 4.02840961,10.7164592 L4.02840961,7.50871369 L10.3719781,7.50871369 C11.2531798,7.52349855 12.0976861,7.15632191 12.687884,6.50179806 C13.3414334,5.88082826 13.7063684,5.01541088 13.6947996,4.11396957 L13.6947996,0.747994467 L9.37944695,0.747994467 L9.53767655,2.51728907 Z" id="路径"></path>
            </g>
            <g id="Layer1_0_MEMBER_15_MEMBER_0_MEMBER_0_MEMBER_0_FILL" transform="translate(167.824066, 20.929461)" fill="#282828">
                <path d="M10.9753804,16.8011065 L10.9753804,17.0600277 C11.0222456,17.4540409 10.8858341,17.8477857 10.6052608,18.128359 C10.3246875,18.4089323 9.93094266,18.5453438 9.53692946,18.4984786 L9.53692946,22.2240664 L10.9753804,22.2240664 C12.0522253,22.2109894 13.0826012,21.7833834 13.8522822,21.0301521 C14.6323605,20.2489176 15.0630305,19.1852148 15.0461964,18.0813278 L15.0461964,0 L0,0 L0,22.2240664 L4.3153527,22.2240664 L4.3153527,16.8011065 L11.0185339,16.8011065 M4.3153527,12.4857538 L4.3153527,10.5438451 L11.0185339,10.5438451 L11.0185339,12.5432918 L4.3153527,12.5432918 M11.0185339,6.27164592 L4.3153527,6.27164592 L4.3153527,4.25781466 L11.0185339,4.25781466 L11.0185339,6.27164592 Z" id="形状"></path>
            </g>
            <path d="M44.059751,12.1549101 L35.4290456,17.1607192 C34.8274326,17.5046678 34.08875,17.5046678 33.4871369,17.1607192 L23.964592,11.6658368 C23.3629789,11.3218882 22.6242963,11.3218882 22.0226833,11.6658368 L12.5145228,17.1607192 C11.9129097,17.5046678 11.1742272,17.5046678 10.5726141,17.1607192 L1.94190871,12.1692946 L23.0152144,0 L23.0152144,0 L44.059751,12.1549101 Z" id="路径" fill="#5BCA87"></path>
            <path d="M37.3997234,20.5123098 C36.8090891,20.8601428 36.4476086,21.495472 36.4503458,22.1809129 L36.4503458,33.1706777 C36.4462636,33.5085669 36.3572227,33.8399967 36.1914246,34.1344398 C36.0218067,34.4267119 35.7788558,34.6696629 35.4865837,34.8392808 L25.8921162,40.2766252 C25.5968309,40.4422957 25.3529458,40.6861809 25.1872752,40.9814661 C25.0147482,41.2783694 24.925313,41.6162356 24.928279,41.9596127 L24.928279,51.942462 L34.5228216,46.4475795 L46.0304288,39.8450899 L46.0304288,39.8450899 L46.0304288,15.5065007 L37.3997234,20.5123098 Z" id="路径" fill="#EC5D3E"></path>
            <path d="M20.8,41.0390041 C20.6472149,40.7331729 20.4196025,40.4709239 20.1383126,40.2766252 L10.5438451,34.8248963 C9.96733291,34.472043 9.61381174,33.8465824 9.60885201,33.1706777 L9.60885201,22.1665284 C9.59546385,21.4854797 9.22360506,20.8620694 8.63070539,20.5266943 L8.63070539,20.5266943 L7.65255878,19.9656985 L0,15.5065007 L0,39.8450899 L11.5076072,46.4475795 L21.1164592,52 L21.1164592,42.0171508 C21.102194,41.6683354 20.992756,41.3300725 20.8,41.0390041 Z" id="路径" fill="#2464F5"></path>
        </g>
    </g>
</svg>