<?xml version="1.0" encoding="UTF-8"?>
<svg width="134px" height="22px" viewBox="0 0 134 22" version="1.1" xmlns="http://www.w3.org/2000/svg" xmlns:xlink="http://www.w3.org/1999/xlink">
    <title>网宿logo</title>
    <g id="logo规范" stroke="none" stroke-width="1" fill="none" fill-rule="evenodd">
        <g id="网宿logo" transform="translate(-0.000000, 0.000000)" fill="#2D74FF" fill-rule="nonzero">
            <path d="M49.2253926,13.6540005 C48.3986534,14.5797065 43.3107278,21.056191 37.7422304,19.030615 C37.0192116,18.7643989 36.281067,18.3598887 35.542058,17.7730032 C36.3130475,17.8054159 37.0594034,17.7812144 37.7422304,17.70861 C38.8140095,17.6022964 39.7116245,17.399177 40.244921,17.1312322 C41.4748739,16.5300852 41.1511794,14.4738251 37.7422304,13.8627382 C37.6557966,13.8484766 37.5676341,13.8307577 37.4716926,13.8234108 C35.2015089,13.4819973 33.5398191,14.1579096 32.6841245,14.8969186 C32.6594909,14.8869787 32.6270782,14.8804961 32.6028767,14.8636415 C32.0877313,14.6453962 31.5557313,14.42499 31.0232991,14.2218706 C35.0653756,14.0351736 35.7499313,11.3708518 31.9909254,8.8992773 C30.4753088,7.89923825 28.7120593,7.00724145 26.8299633,6.20038195 C24.6626358,5.28375152 22.3341093,4.49504311 20.0310327,3.84376444 C18.4419474,3.3969017 16.8692844,3.01443214 15.3770049,2.69851661 C12.8907367,2.1704061 10.6352467,1.82251007 8.87977626,1.65828585 C5.07539263,1.30866114 2.44607649,1.56104783 0.984480962,2.41458158 C0.341413503,2.78840776 0.00907554882,3.27546221 0,3.86883024 L0,3.93408776 C0.00907554882,4.25043546 0.104584896,4.60092451 0.28696021,4.98209756 C0.889403784,6.25786042 2.52559558,7.71210908 5.13892148,9.32193857 C7.46528716,10.7511214 10.9369007,12.3942279 13.9076303,13.4176041 C13.9227562,13.5805318 13.9551689,13.7503742 14.0260446,13.9379356 C14.2015052,14.42499 14.653554,14.9868097 15.3770049,15.6195051 C15.487208,15.7176075 15.607351,15.8152777 15.7331121,15.9198626 C16.87836,16.8308748 18.3001959,17.6671218 19.9916573,18.3827936 L20.0309847,18.3996482 C22.2389361,19.3253542 24.5830207,20.0483729 26.8299153,20.5691366 C30.1900292,21.3418547 33.3254153,21.6651171 35.4145202,21.5596679 C35.5117582,21.5276874 35.5502212,21.4874957 35.5013861,21.447304 C35.4871245,21.4300172 35.4642196,21.4144591 35.4222992,21.3984689 C34.2705688,21.3241358 32.818481,21.1620724 31.0556637,20.9265403 C29.5780779,20.7169384 28.1722322,20.4641195 26.8299153,20.1616012 C24.3834067,19.6175005 22.1672441,18.9109041 20.1663016,18.0495913 C20.1183309,18.0336011 20.0790035,18.010264 20.0310327,17.9942737 C18.6809368,17.399177 17.9194551,16.846865 17.7353511,16.335177 C17.4980903,15.6540786 18.1169563,15.2949462 18.7448978,15.1242394 C19.149408,15.261237 19.5781196,15.3913199 20.0310327,15.514488 C22.0881571,16.100077 24.5108965,16.6286197 26.8299633,17.0162753 C29.0776743,17.4073882 31.2147499,17.6671218 32.7861164,17.7483696 C34.3198841,19.1058124 36.0273838,19.813273 37.7422304,20.0241715 C40.799778,20.3906508 43.8820552,19.1874923 46.0238847,17.237978 C47.4932593,15.9051688 48.6774023,14.6125514 49.3204698,13.8160639 L49.2253926,13.6540005 Z M20.0310327,7.37285642 C21.7458793,7.42947056 23.5497527,7.63172565 25.4245018,7.9891294 C25.9327325,8.08766393 26.4003393,8.18446979 26.8299153,8.28991902 C28.1722322,8.60583455 29.1480698,8.9563236 29.7600211,9.33014978 C30.4437124,9.75237889 30.5776848,10.0778021 30.1813858,10.3120377 C29.8706563,10.4922522 29.2435791,10.6219029 28.291943,10.7113619 C27.8143963,10.7511214 27.3299348,10.7848306 26.8299153,10.7921775 C26.3445895,10.8081677 25.836791,10.8003887 25.3281281,10.7848306 C24.3358681,10.7359955 23.3423116,10.6123952 22.3422725,10.42008 C21.3500125,10.2234431 20.673668,10.0220523 20.3240433,9.80899302 C20.0552342,9.6378541 19.9917054,9.51727896 20.1261099,9.43430251 C20.19785,9.39583947 20.348677,9.36299463 20.5859377,9.33014978 C20.7618305,9.30465181 20.8958029,9.25624888 21.0168102,9.19142354 C21.2462919,9.05269729 21.3016096,8.85865341 21.1827631,8.60064852 C21.047062,8.33183941 20.7864641,8.07815621 20.3806575,7.82706603 C20.2765047,7.77045189 20.1663016,7.69741533 20.0310327,7.63172565 C19.8802058,7.55004571 19.7056095,7.46101889 19.5141586,7.3633487 C19.6900514,7.3633487 19.8556202,7.37285642 20.0310327,7.37285642 M20.0310327,11.5316186 C18.8244169,11.4343806 17.7353511,11.4343806 16.7586491,11.5489054 C16.2193022,11.6059517 15.7586101,11.6949785 15.3770049,11.8168502 C15.1064671,11.8963693 14.8756888,11.9949038 14.6863988,12.1007852 C14.6215735,12.0765837 14.5580446,12.0519501 14.4867368,12.0277486 C11.896748,11.1102539 9.16587214,9.17500111 10.5401695,8.37159896 C11.5155749,7.8024324 13.1301583,7.47700915 15.3770049,7.4121838 C15.7823794,7.39619355 16.2106589,7.39619355 16.6557929,7.39619355 C16.3225906,8.42043406 17.195572,9.57389309 19.2596111,10.8423091 C19.5232342,11.0121515 19.7846964,11.1577924 20.0310327,11.2969509 C20.2060612,11.4015358 20.3806575,11.4918591 20.5466104,11.5808859 C20.3724943,11.5649437 20.197898,11.5489054 20.0310327,11.5316186 M32.4208856,17.2621794 C30.7064712,17.0919049 28.7275694,16.6839373 26.8299153,16.2050941 C24.6850606,15.6687724 22.6517055,15.0512029 21.2462919,14.6125514 C22.5337234,14.3031184 24.2394944,14.1652565 26.4003393,14.2140916 C26.5433873,14.2140916 26.686003,14.2140916 26.8299153,14.2218706 C29.0128009,14.2949072 30.872376,14.6030436 32.4299611,15.15622 C31.9909254,15.6687724 31.8405306,16.3606749 32.4208856,17.2621794 M37.7422304,14.7504133 C37.8139704,14.7568958 37.8934895,14.7568958 37.963885,14.7659714 C38.6799891,14.8394401 39.3144131,14.9453215 39.9501337,15.3852695 C40.6562979,15.872324 40.6481347,16.278995 40.3714985,16.7007919 C40.1005285,17.1143777 38.9414513,17.2842201 37.7421823,17.3516384 C36.8203179,17.391398 35.8682496,17.3754077 35.2883268,17.342995 C34.3198841,16.3196189 35.4793935,14.6453962 37.7422304,14.7504133" id="形状"></path>
            <path d="M70.1556123,14.6466919 L72.6658857,20.6063593 L70.0941945,20.6063593 L69.7335436,19.7979299 L67.6210575,19.7979299 L67.2604066,20.6063593 L64.6758606,20.6063593 L67.1989888,14.6466919 L70.1556123,14.6466919 Z M95.0533817,14.6107458 L95.0533817,16.1426196 L91.0148054,16.1426196 C90.8162689,16.1426196 90.7162864,16.2354604 90.7162864,16.4204279 C90.7162864,16.6618141 90.7627068,16.8025037 90.8534052,16.8424966 C90.8752764,16.8493704 91.0174389,16.8535103 91.2804244,16.8544379 L93.8364526,16.8546374 C94.3742153,16.8546374 94.8255646,16.9596189 95.1905005,17.1681537 C95.6289949,17.4173957 95.8490356,17.7873307 95.8490356,18.2779588 L95.8490356,19.1827998 L95.8489563,19.1827998 C95.8489563,19.6170093 95.7532588,19.9390956 95.5632922,20.1483445 C95.3726114,20.3575935 95.0576667,20.4939981 94.6184581,20.5582725 C94.3620746,20.5904097 93.984998,20.6061213 93.4879424,20.6061213 L88.3681275,20.6061213 L88.3681275,19.0863882 L93.2022783,19.0863882 C93.4093848,19.0785324 93.512938,18.9821208 93.512938,18.7971533 C93.512938,18.6200416 93.5001625,18.5114892 93.4758017,18.4707821 C93.4422362,18.3986519 93.3472529,18.3629439 93.1894234,18.3629439 L90.629873,18.3629439 C90.090682,18.3629439 89.6150513,18.2822437 89.2008383,18.1215577 C88.6459358,17.9037388 88.3681275,17.570226 88.3681275,17.1195908 L88.3681275,16.0462079 C88.3681275,15.6034286 88.4616825,15.279914 88.6480783,15.07495 C88.8344741,14.869986 89.1508471,14.7350097 89.5986256,14.6707353 C89.9050004,14.6307423 90.282077,14.6107458 90.7291413,14.6107458 L95.0533817,14.6107458 Z M106.34005,17.963887 C106.669278,17.963887 106.966369,18.0731535 107.232036,18.2924007 C107.544838,18.5437851 107.701954,18.877298 107.701954,19.2929392 C107.701954,19.7092947 107.544838,20.0435217 107.232036,20.2941919 C106.966369,20.5020126 106.669278,20.60628 106.34005,20.60628 C106.010822,20.60628 105.713731,20.5020126 105.449492,20.2941919 C105.135976,20.043601 104.979575,19.7092947 104.979575,19.2929392 C104.979575,18.877298 105.135976,18.5437851 105.449492,18.2924007 C105.713731,18.0731535 106.010822,17.963887 106.34005,17.963887 Z M115.827907,14.6351066 L115.827907,16.1548397 L111.317271,16.1548397 C110.869492,16.1548397 110.64596,16.2876735 110.64596,16.5526269 L110.64596,18.6879661 C110.64596,18.9536337 110.869492,19.0864676 111.317271,19.0864676 L115.827907,19.0864676 L115.827907,20.6062006 L110.64596,20.6062006 C110.157475,20.6062006 109.771828,20.5869183 109.490449,20.5462111 C109.059096,20.4819367 108.751293,20.3455321 108.564183,20.1362832 C108.377787,19.9270342 108.284232,19.6092329 108.284232,19.1828792 L108.284232,16.058428 C108.284232,15.6320743 108.377787,15.314273 108.564183,15.1050241 C108.751293,14.8957751 109.059096,14.7593705 109.490449,14.6950961 C109.771828,14.6543889 110.157475,14.6351066 110.64596,14.6351066 L115.827907,14.6351066 Z M121.805667,14.6347099 C122.294152,14.6347099 122.667658,14.6511355 122.924042,14.6832727 C123.36325,14.746833 123.680337,14.8839518 123.874589,15.0932007 C124.069555,15.3024497 124.166681,15.6238218 124.166681,16.0580313 L124.166681,19.1824824 C124.166681,19.617406 124.069555,19.9387782 123.874589,20.1480271 C123.680337,20.3572761 123.36325,20.4936807 122.924042,20.5579551 C122.667737,20.5900923 122.294152,20.606518 121.805667,20.606518 L118.686929,20.606518 C118.206299,20.606518 117.858503,20.5943773 117.643541,20.57081 C117.179336,20.5058214 116.845824,20.3694168 116.642288,20.1601678 C116.439466,19.951633 116.33877,19.6252618 116.33877,19.1824824 L116.33877,16.0580313 C116.33877,15.6081103 116.437324,15.2817391 116.636575,15.08106 C116.835111,14.8796668 117.171481,14.746833 117.643541,14.6832727 C117.917064,14.6511355 118.26486,14.6347099 118.686929,14.6347099 L121.805667,14.6347099 Z M98.8149432,14.6349479 L98.8149432,18.6885216 C98.8149432,18.8656333 98.8856451,18.9820415 99.0263347,19.0384601 C99.117033,19.0705973 99.2748624,19.0863089 99.4983946,19.0863089 L101.275225,19.0863089 C101.499472,19.0863089 101.656587,19.0705973 101.747999,19.0384601 C101.888689,18.9820415 101.959391,18.8656333 101.959391,18.6885216 L101.959391,14.6349479 L104.295409,14.6349479 L104.295409,19.1827205 C104.295409,19.6097883 104.203997,19.9268755 104.021172,20.1361244 C103.839061,20.3453734 103.532686,20.4824922 103.102047,20.5460524 C102.820668,20.5867596 102.435736,20.6060419 101.946536,20.6060419 L98.8277981,20.6060419 C98.3300284,20.6060419 97.9415252,20.5867596 97.6594319,20.5460524 C97.2280791,20.4824922 96.9224185,20.3453734 96.7403076,20.1361244 C96.5574826,19.9268755 96.4660701,19.6097883 96.4660701,19.1827205 L96.4660701,14.6349479 L98.8149432,14.6349479 Z M87.8815463,14.6351066 L87.8815463,16.1548397 L83.5451651,16.1548397 C83.3044931,16.1548397 83.1473779,16.1712653 83.072391,16.2026884 C82.9238457,16.2591071 82.8488589,16.3798001 82.8488589,16.5647677 L82.8488589,18.6879661 C82.8488589,18.8650779 82.9238457,18.9822002 83.072391,19.0386188 C83.1552336,19.070756 83.313063,19.0864676 83.5451651,19.0864676 L85.5333873,19.0864676 L85.5333873,18.3744498 L83.5451651,18.3744498 L83.5451651,16.8547167 L87.8815463,16.8547167 L87.8815463,20.6062006 L82.8731403,20.6062006 C82.3846547,20.6062006 81.9997223,20.5869183 81.717629,20.5462111 C81.2791346,20.4819367 80.9677607,20.3455321 80.7856498,20.1362832 C80.6042531,19.9270342 80.5128406,19.6092329 80.5128406,19.1828792 L80.5128406,16.058428 C80.5128406,15.6399301 80.6042531,15.3256996 80.7856498,15.1171648 C80.9677607,14.9079158 81.2791346,14.7672263 81.717629,14.6950961 C81.9825825,14.6543889 82.368229,14.6351066 82.8731403,14.6351066 L87.8815463,14.6351066 Z M133.64573,14.635186 L133.64573,20.6062006 L131.284716,20.6062006 L131.284716,18.6523375 L130.3156,20.6062006 L128.215255,20.6062006 L127.24614,18.6523375 L127.24614,20.6062006 L124.897266,20.6062006 L124.897266,14.635186 L127.419681,14.6466125 L129.271498,17.9159589 L131.110461,14.6466125 L133.64573,14.635186 Z M74.895494,14.635186 L77.5922425,17.7353557 L77.5922425,14.6466125 L79.9532564,14.635186 L79.9532564,20.6062006 L77.4558379,20.6062006 L75.0326921,17.9760277 L75.0326921,20.6062006 L72.683819,20.6062006 L72.683819,14.635186 L74.895494,14.635186 Z M55.2124435,14.6467712 L56.6164032,17.7955038 L58.0455173,14.6467712 L60.5686455,14.6467712 L61.9848253,17.7955038 L63.3888644,14.6467712 L65.9734104,14.6467712 L63.4638512,20.6064387 L60.4936587,20.6064387 L59.3002969,17.7712224 L58.1076492,20.6064387 L55.1509464,20.6064387 L52.6278975,14.6467712 L55.2124435,14.6467712 Z M121.147211,16.1544429 L119.37038,16.1544429 C119.163274,16.1544429 119.010443,16.1715827 118.910461,16.2030058 C118.761201,16.2594245 118.686929,16.3765467 118.686929,16.5529443 L118.686929,18.6882835 C118.686929,18.8653953 118.761201,18.9818034 118.910461,19.0382221 C118.993304,19.0703593 119.146848,19.086785 119.37038,19.086785 L121.147211,19.086785 C121.362887,19.086785 121.516432,19.0703593 121.60713,19.0382221 C121.75639,18.9818034 121.830662,18.8653953 121.830662,18.6882835 L121.830662,16.5529443 C121.830662,16.3765467 121.75639,16.2594245 121.60713,16.2030058 C121.516432,16.1715827 121.362887,16.1544429 121.147211,16.1544429 Z M68.6651598,17.4576267 L68.3045089,18.2781968 L69.0379515,18.2781968 L68.6651598,17.4576267 Z M68.9979585,0.0643327092 L68.9979585,9.06489457 C68.910831,9.63479446 68.3523576,10.1118535 67.3725297,10.1832695 L67.3725297,10.1832695 L65.154348,10.1832695 L64.8601139,9.44554199 C65.6573846,9.52271594 66.3825223,9.53671459 66.6264199,9.53925094 L66.7133598,9.53981115 C67.115432,9.49196241 67.2639774,9.30485242 67.2639774,8.80993935 L67.2639774,8.80993935 L67.2639774,0.49282887 L54.0363009,0.49282887 L54.0363009,10.1832695 L52.3430269,10.1832695 L52.3430269,0.0643327092 L68.9979585,0.0643327092 Z M119.089318,0.000216987385 L120.605481,0.0909153414 C120.73403,0.161617208 120.821157,0.277311171 120.73403,0.437997232 C120.690466,0.576544324 120.561203,0.737944544 120.561203,0.969332471 L120.561203,0.969332471 L120.561203,2.62689845 L122.334463,2.62689845 L122.334463,3.01825828 L120.561203,3.01825828 L120.561203,5.21144446 L122.40088,4.68082338 L122.441587,4.99719638 L120.561203,5.64351143 L120.561203,9.38999619 C120.56763,9.85277205 120.171271,10.1819999 119.739918,10.1819999 L119.739918,10.1819999 L116.79615,10.1819999 L116.534767,9.67351782 L118.614402,9.78921178 C118.827936,9.71922408 119.005048,9.48855031 119.005048,9.26573231 L119.005048,9.26573231 L119.005048,6.10557312 C118.223756,6.33696105 117.683851,6.47479398 117.165371,6.77402713 L117.165371,6.77402713 L116.901131,6.94971056 C116.517627,7.22466226 116.24339,7.33392878 116.211967,6.95899464 L116.211967,6.95899464 L116.204111,6.69832614 C116.191256,6.48836302 116.211967,6.38838059 116.689026,6.3198212 L116.689026,6.3198212 L117.078957,6.27340078 L119.005048,5.69635929 L119.005048,3.01825828 L116.34123,3.01825828 L116.34123,2.62689845 L119.005048,2.62689845 L119.005048,0.715091416 C119.005048,0.507270778 118.872928,0.323017429 118.742951,0.161617208 C118.742951,0.0687763731 118.827936,0.000216987385 119.089318,0.000216987385 L119.089318,0.000216987385 Z M107.724525,5.62030032e-05 L107.827487,0.00434324671 L109.343649,0.0971840816 C109.517904,0.166457628 109.56004,0.281437431 109.473627,0.442837651 C109.429349,0.557817455 109.299371,0.964888807 109.299371,1.17199529 L109.299371,1.17199529 L109.299371,5.71905371 L112.158155,5.21128576 L112.243854,5.62621288 L109.299371,6.13469499 L109.299371,10.1818412 L107.74036,10.1818412 L107.74036,6.41178917 L102.202047,7.42803923 L101.983514,7.24235756 L101.810687,7.12809192 L101.983514,7.10381047 L107.74036,5.9961479 L107.74036,0.942035679 C107.74036,0.734215041 107.611097,0.327857848 107.43827,0.166457628 C107.43827,0.0507636641 107.568961,-0.0185098819 107.827487,0.00434324671 Z M127.241299,0.064174007 L128.32468,0.133447553 L128.756033,0.157014842 C128.929574,0.225574228 128.973852,0.341982351 128.88601,0.503382572 C128.800232,0.641215504 128.71239,0.803329884 128.71239,1.03400365 L128.71239,1.03400365 L128.71239,2.00311913 L133.64938,2.00311913 L133.64938,2.39590728 L128.71239,2.39590728 L128.71239,4.37984451 L132.134646,4.37984451 C132.436022,4.37984451 132.610277,4.51910576 132.653126,4.68050598 C132.090368,5.64962146 131.441196,6.64230424 130.272116,7.4500195 L130.272116,7.4500195 L129.102321,8.25844892 C130.706325,8.85762939 132.349608,9.32040524 133.995827,9.61963839 L133.995827,9.61963839 L133.555904,10.1816825 C131.66695,9.88816266 129.708723,9.36682566 128.32468,8.78907 C128.236839,8.74264959 128.193989,8.72051062 128.107576,8.69622917 C125.855828,9.48180546 123.821186,9.96672028 121.960084,10.1509736 L121.960084,10.1509736 L121.71727,10.1509736 L121.396612,9.75889965 C121.613002,9.73533236 121.785829,9.71247923 121.960084,9.66677297 C123.994727,9.32040524 125.683001,8.83549042 127.067758,8.25844892 C126.20291,7.61213388 125.466611,6.94225155 124.947416,6.20380983 C124.643898,5.78816856 124.513921,5.30396789 124.384658,4.79548578 L124.384658,4.79548578 L123.085601,4.79548578 L123.085601,4.37984451 L127.154886,4.37984451 L127.154886,2.39590728 L122.480707,2.39590728 L122.480707,2.00311913 L127.154886,2.00311913 L127.154886,0.779762596 C127.154886,0.572656118 127.025623,0.386974448 126.894931,0.225574228 C126.894931,0.133447553 126.982059,0.064174007 127.241299,0.064174007 L127.241299,0.064174007 Z M101.36275,0.0878999981 C101.707689,0.0193406123 101.925508,0.0193406123 102.141184,0.157887704 L102.141184,0.157887704 L102.832491,0.549961692 L102.919619,0.619235238 C102.919619,0.665655655 102.919619,0.711361912 102.832491,0.734215041 C102.746078,0.780635458 102.617529,0.780635458 102.443274,0.804202747 C101.707689,0.827055876 100.97139,0.849909004 100.236519,0.91918255 L100.236519,0.91918255 L100.236519,2.62673975 L102.660379,2.62673975 L102.660379,3.01881374 L100.193034,3.01881374 C100.510122,4.52283526 100.83435,4.9284783 102.832571,6.06470728 C102.877563,6.08970289 102.919698,6.11184186 102.963976,6.13469499 L102.963976,6.13469499 L102.832491,6.22753582 L102.39971,6.4346423 C101.620562,6.11184186 100.884976,5.67334746 100.236519,5.11915909 L100.236519,5.11915909 L100.236519,10.1818412 L98.6782212,10.1818412 L98.6782212,5.18843263 C97.9404936,6.01900102 96.8585408,6.85099774 95.3452352,7.68085197 L95.3452352,7.68085197 L94.8246124,7.35805153 C95.8637156,6.71245065 96.7514168,5.9547266 97.5077125,5.11915909 C98.1768807,4.38071737 98.4596882,3.84009805 98.5032519,3.01881374 L98.5032519,3.01881374 L95.2573935,3.01881374 L95.2573935,2.62673975 L98.6782212,2.62673975 L98.6782212,1.01130922 C97.8112306,1.0584438 96.7728416,1.08058277 95.5601975,1.12628903 L95.5601975,1.12628903 L95.0845667,0.711361912 C97.6819676,0.57352898 99.8023095,0.4114146 101.36275,0.0878999981 Z M88.2356904,3.20274968 L88.2356904,3.59553783 L84.4256454,3.59553783 L82.9958965,4.81960853 L88.9277117,4.81960853 L88.9277117,10.1051087 L87.3708423,10.1051087 L87.3708423,9.48164676 L80.6148862,9.48164676 L80.6148862,10.1051087 L79.0573026,10.1051087 L79.0573026,4.81960853 L81.5240122,4.81960853 C81.9575075,4.47252664 82.3038752,4.08045265 82.6066792,3.59553783 L82.6066792,3.59553783 L78.5809577,3.59553783 L78.5809577,3.20274968 L88.2356904,3.20274968 Z M76.8732418,2.46446667 L78.041608,2.71942188 C78.5179529,2.81091375 78.5179529,2.99588126 78.084299,3.15720213 C77.6972241,3.52642299 77.3058643,3.87207656 76.8730831,4.21915845 L76.8730831,4.21915845 L76.8730831,10.1052674 L75.315579,10.1052674 L75.315579,5.48822124 C74.6642648,5.97385023 73.9729576,6.38877734 73.2809363,6.73514507 L73.2809363,6.73514507 L72.7967357,6.08883003 C74.0958726,5.28040061 74.8814489,4.63408556 75.8341387,3.64211695 C76.0933788,3.34216964 76.3540473,3.040794 76.5697237,2.74156085 C76.5697237,2.58016063 76.6997009,2.48803396 76.8732418,2.46446667 L76.8732418,2.46446667 Z M87.370763,7.35773412 L80.6148068,7.35773412 L80.6148068,9.08885861 L87.370763,9.08885861 L87.370763,7.35773412 Z M65.4592944,2.34972492 L66.2805787,3.27313415 C66.5826685,3.5723673 66.4534055,3.59522043 66.063474,3.78018794 C65.6735425,4.17297608 65.2414755,4.86571154 64.8522582,5.18851198 C64.9099861,5.24623994 64.988147,5.3245 65.0799298,5.41644483 L65.3893331,5.72648627 C65.445441,5.78271978 65.5032516,5.84066264 65.5619136,5.89945894 L65.917291,6.25563067 C65.975953,6.31441706 66.0337636,6.37234504 66.0898715,6.42855871 L66.3992748,6.73842161 C66.4910576,6.83028709 66.5692185,6.90844796 66.6269464,6.96605689 L66.6269464,6.96605689 L65.6320418,8.12013988 C65.459215,7.75163319 64.5493749,6.50470936 63.899489,6.01908038 C63.7695118,6.13477434 63.5973992,6.27332143 63.4652796,6.41186852 C62.5568677,7.15031024 61.6056062,7.9580255 60.7821794,8.44294033 L60.7821794,8.44294033 L60.5657889,8.05015218 L60.2636991,7.65879235 C60.3508266,7.58880465 60.477233,7.5195311 60.5657889,7.45025755 C61.4742801,6.78037522 62.5147323,5.9269537 63.2068329,5.21136511 C62.6447888,4.54148278 61.7792265,3.87231461 60.9993635,3.29527311 L60.9993635,3.29527311 L61.518558,2.57968452 C62.2105793,3.01889309 62.8618935,3.59522043 63.4653589,4.05799628 C63.6403282,4.19582921 63.7695912,4.3343763 63.9431321,4.45007027 C64.5051763,3.91944919 65.0693629,3.11173392 65.4592944,2.34972492 L65.4592944,2.34972492 Z M59.8300451,2.35004232 L60.5656302,3.1341903 L60.6527577,3.27345155 C60.9112837,3.54983157 60.8691483,3.5726847 60.5656302,3.71123179 C60.5234947,3.73408492 60.4770743,3.75765221 60.3928034,3.78050534 C60.0457215,4.17257933 59.6129404,4.86531479 59.2230089,5.18811523 C59.5685831,5.53519712 60.2192624,6.20365113 60.5656302,6.57287199 L60.5656302,6.57287199 L60.5657095,6.64214553 L59.5686624,7.75123643 C59.4401136,7.38130141 58.8766411,6.5043126 58.2696049,6.01868362 L58.2696049,6.01868362 L57.88253,6.31934509 C57.0148253,7.03421952 56.3235182,7.61197518 55.5000914,8.12045729 L55.5000914,8.12045729 L54.9794686,7.31202787 C55.9758015,6.59643928 56.7998631,5.99583049 57.5768695,5.21168252 C57.0148253,4.54180019 56.1056993,3.87263201 55.3701142,3.29559052 L55.3701142,3.29559052 L55.8907371,2.58000193 C56.6270363,3.0406353 57.3190576,3.66552554 57.88253,4.12687307 C58.0553568,4.24113871 58.185334,4.35754684 58.3138829,4.44967351 C58.8766411,3.91976659 59.4401136,3.11133717 59.8300451,2.35004232 L59.8300451,2.35004232 Z M130.732115,4.79540643 L125.968666,4.79540643 C126.400018,5.90378317 127.092754,6.87361281 128.132571,7.75131578 C128.218985,7.68061392 128.305319,7.63498701 128.349676,7.58848724 C129.431629,6.80362511 130.209349,5.88093004 130.732115,4.79540643 L130.732115,4.79540643 Z M87.370763,5.21168252 L80.6148068,5.21168252 L80.6148068,6.9663743 L87.370763,6.9663743 L87.370763,5.21168252 Z M104.044739,3.38827265 C104.607418,3.59537913 105.128041,3.80391393 105.604465,4.0110204 C106.125088,4.24098001 106.600004,4.4730821 107.0335,4.70375586 L107.0335,4.70375586 L106.079381,5.37292404 C105.950118,5.25723007 105.777212,5.14225027 105.604465,5.02655631 C105.08527,4.61162919 104.391741,4.17313479 103.526259,3.73392622 L103.526259,3.73392622 Z M81.1187193,0.129029771 L81.2090675,0.133606255 L82.7509396,0.22573293 C82.8816309,0.295006476 82.9701868,0.409986279 82.8816309,0.57281482 C82.8402096,0.687794623 82.7073758,0.872047972 82.7073758,1.07986861 L82.7073758,1.07986861 L82.7073758,1.19556257 L90.7609611,1.19556257 L90.7609611,3.48016127 L89.1769536,3.48016127 L89.1769536,1.61120385 L74.3816954,1.61120385 L74.3816954,3.48016127 L72.7969737,3.48016127 L72.7969737,1.19556257 L81.1226541,1.19556257 L81.1226541,0.849194844 C81.1226541,0.641374206 80.9912487,0.457120857 80.8577007,0.295006476 C80.8577007,0.179312512 80.9469707,0.110038966 81.2090675,0.133606255 Z M104.306201,1.12684449 C104.739696,1.26396326 105.170335,1.42607764 105.604544,1.61104515 C106.166588,1.81815163 106.687211,2.07167852 107.24997,2.34948686 L107.24997,2.34948686 L106.166588,3.01865504 C105.993047,2.85654066 105.822363,2.69514043 105.604544,2.51088709 C105.170335,2.16523352 104.607577,1.7952985 103.959833,1.44893077 L103.959833,1.44893077 Z" id="形状结合"></path>
        </g>
    </g>
</svg>