<?xml version="1.0" encoding="UTF-8"?>
<svg width="446px" height="81px" viewBox="0 0 446 81" version="1.1" xmlns="http://www.w3.org/2000/svg" xmlns:xlink="http://www.w3.org/1999/xlink">
    <!-- Generator: Sketch 54.1 (76490) - https://sketchapp.com -->
    <title>形状 copy 2复制</title>
    <desc>Created with Sketch.</desc>
    <g id="Page-1" stroke="none" stroke-width="1" fill="none" fill-rule="evenodd">
        <g id="画板-copy-4" transform="translate(-1340.000000, -666.000000)" fill="#2E95FF">
            <g id="分组">
                <path d="M1356.93311,684.294571 L1353.15576,676.5498 L1347.46422,666 C1347.46422,666 1382.77307,669.851658 1402.18311,673.436016 C1404.22652,673.755098 1405.98051,674.158682 1407.52856,674.634815 C1420.48291,678.61917 1421.01905,689.659347 1420.67145,692.922316 C1420.37033,695.807859 1416.3091,717.127036 1410.97998,726.428822 C1404.76423,737.294231 1396.88487,742.557744 1388.94788,743.098784 C1386.9212,743.238197 1383.04372,743.338969 1377.32439,743.4011 C1373.31953,743.400366 1363.31945,743.399993 1340,743.399981 L1356.93311,684.294571 Z M1568.60356,712.2 L1568.6,712.194872 L1596.14742,712.19478 C1600.10472,712.19478 1603.95195,712.013149 1607.92321,710.909887 C1611.89447,709.806624 1614.04576,707.830673 1615.19369,705.73692 C1616.76191,702.87658 1617.51607,699.016795 1616.56778,696.381875 C1615.6195,693.746956 1612.02969,691.8 1607.92321,691.8 L1572.89967,691.8 L1578.14932,673.8 L1608.73595,673.8 C1616.47995,673.8 1621.09325,674.912849 1624.80532,676.632487 C1628.51738,678.352124 1631.21762,680.510994 1634.0013,684.5273 C1634.27533,684.922677 1634.52958,685.343186 1634.76445,685.784506 C1636.9154,689.826184 1637.71101,695.516077 1637.33873,699.84345 C1636.96645,704.170823 1635.00492,712.119333 1630.47583,718.543684 C1625.94673,724.968035 1616.64423,729.643028 1602.41349,729.643028 L1582.88946,729.643028 L1578.95931,743.4 L1558.83587,743.4 L1567.78233,712.2 L1568.60356,712.2 Z M1754.11827,673.800002 C1762.73497,673.798656 1768.29154,674.541606 1772.38403,675.800329 C1785.11882,679.717153 1785.64586,690.570212 1785.30416,693.777877 C1785.00814,696.614514 1781.01574,717.572354 1775.77695,726.716485 C1769.66655,737.397737 1761.92073,742.57204 1754.11827,743.103909 C1752.12594,743.24096 1748.31417,743.340024 1742.69178,743.401102 C1738.7548,743.40038 1728.92421,743.400013 1706,743.400002 L1725.93924,673.801624 C1737.80385,673.801624 1747.19686,673.801083 1754.11827,673.800002 Z M1730.64211,726.338473 C1730.64211,726.338473 1740.28435,726.338459 1743.34928,726.338459 C1748.84223,726.338459 1754.35791,725.199739 1757.42042,719.330899 C1760.26366,713.862332 1763.57157,702.236734 1764.26776,699.613942 C1765.11744,696.41176 1763.75795,691.604831 1759.16784,690.895671 C1754.18547,690.65563 1748.2252,690.535609 1741.28704,690.535609 L1730.64211,726.338473 Z M1365.06697,726.044293 C1365.06697,726.044293 1374.87545,726.044278 1377.99323,726.044278 C1383.58088,726.044278 1389.19165,724.885926 1392.30697,718.9159 C1395.19923,713.353049 1398.56416,701.527013 1399.27236,698.859001 C1400.13669,695.601609 1398.75376,690.711804 1394.08451,689.990418 C1389.01624,689.746237 1382.95321,689.624147 1375.89542,689.624147 L1365.06697,726.044293 Z M1571.64691,673.8 L1566.39947,691.8 L1526.51026,691.8 L1550.43215,714.59437 C1555.29322,719.226512 1556.96638,726.223451 1554.71502,732.504508 C1552.37475,739.033628 1546.10724,743.4 1539.07528,743.4 L1487.99178,743.4 L1493.23922,725.4 L1534.14605,725.4 L1510.21373,702.60563 C1505.35266,697.973488 1503.67951,690.976549 1505.93086,684.695492 C1508.27114,678.166372 1514.53864,673.8 1521.5706,673.8 L1571.64691,673.8 Z M1711.77269,702.884474 C1710.42362,708.882899 1708.4089,717.526141 1703.68353,727.057821 C1698.1223,738.275543 1686.62366,745.208485 1676.3461,745.909074 C1673.96925,746.071096 1672.51726,746.1 1669.43812,746.1 C1666.35898,746.1 1663.56301,745.968076 1661.2042,745.705868 C1640.76453,743.433764 1635.42168,724.516479 1639.44376,711.368935 C1642.46753,701.484692 1640.91737,706.692544 1644.20821,695.38457 C1647.49904,684.076597 1656.07509,674.581137 1671.62422,672.015171 C1677.85711,670.986601 1681.76021,670.944209 1687.59202,671.30773 C1691.65848,671.561209 1696.13458,672.784413 1699.1999,674.169752 C1714.26818,680.979706 1713.12177,696.886048 1711.77269,702.884474 Z M1669.17942,729.894224 C1670.33234,729.907383 1671.37335,729.921614 1673.4021,729.649023 C1677.88926,729.046114 1682.31181,725.689055 1684.46492,721.562939 C1687.61472,715.504744 1690.794,704.942124 1691.42448,701.984275 C1692.21215,698.28901 1692.05097,694.859398 1690.57086,692.229427 C1689.09076,689.599456 1685.55317,687.451079 1681.87608,687.337176 C1677.70241,687.207892 1676.96021,687.412969 1675.09756,687.996911 C1673.10889,688.620356 1666.57531,690.360389 1663.53758,700.018131 C1660.49985,709.675872 1661.51581,706.324998 1659.52004,712.676972 C1657.60568,718.769853 1656.4116,729.342239 1669.17942,729.894224 Z M1433.387,674.4 L1452.31564,674.4 L1456.14525,683.00144 L1456.15393,682.997574 L1468.87303,711.565144 L1479.52996,674.4 L1500.51435,674.4 L1481.63694,740.233354 L1481.66476,740.295829 L1481.61711,740.302526 L1480.72892,743.4 L1462.23161,743.4 L1459.39467,737.028126 L1459.39254,737.029074 L1445.41493,705.634856 L1434.58595,743.4 L1413.60157,743.4 L1432.65102,676.966646 L1432.62321,676.904171 L1432.67086,676.897474 L1433.387,674.4 Z" id="形状-copy-2复制"></path>
            </g>
        </g>
    </g>
</svg>