<svg id="图层_1" data-name="图层 1" xmlns="http://www.w3.org/2000/svg" viewBox="0 0 775.51 207.43"><defs><style>.cls-1{fill:#00a3ff;}.cls-2{fill:#00c8dc;}.cls-3{fill:#006eff;}</style></defs><title>画板 1</title><path d="M613.92,35.06H529.36V47.3h25.46V91.91H525.64v12.23h29.18V179h13.46V104.14h32.18v73.25h25.42V165.14h-12ZM568.28,91.91V47.3h32.18V91.91Z"/><rect x="379.35" y="144.74" width="66.71" height="12.24"/><path d="M333.9,122.09c0,22.25-1.8,39.14-5.51,54.11-.38,1.38,0,1.75.76,1.75h12.27a255.19,255.19,0,0,0,4.7-50h17.15v38H351.09c-.59,0-1,.38-.74,1.23l3.36,11h21.77V35.37H333.9ZM346.13,117V87.67h17.14V117Zm17.14-69.34V76.66H346.13v-29Z"/><path d="M450.79,85h16.43V74H419.35a110.31,110.31,0,0,0,3.93-11.38h40.94v-11h-12c2-6.8,4.36-14.83,4.49-15.29.24-.82-.19-1.13-.71-1.13H445.58l-4.83,16.42H426c1.37-6.36,2.57-13.41,3.65-21.33.13-.91-.36-1.1-1-1.1H416.85c-1.21,8.41-2.48,15.66-4.1,22.43h-7.23L400.7,35.14H390.28c-.53,0-1,.31-.72,1.13.14.46,2.49,8.49,4.49,15.29H382.37v11h27.28A107.12,107.12,0,0,1,405.17,74h-25.8V85h19.38a62.93,62.93,0,0,1-19.5,18.23v12.6c0,.63.51,1.3,2.5.17a111.17,111.17,0,0,0,11.4-7.26h45.57l-.38,16.49h-36l.54-9.86a.72.72,0,0,0-.74-.75H390.65l-1.16,20.87a.72.72,0,0,0,.75.75h62.07V166h-28c-.6,0-1,.39-.74,1.24l3.35,11h38.82v-53H450.58l.5-21.42A88.18,88.18,0,0,0,467.77,116c2,1.13,2.49.46,2.49-.17V103.2A63.08,63.08,0,0,1,450.79,85Zm-15,0a88.91,88.91,0,0,0,9.35,12.72H405.1A78,78,0,0,0,414,85Z"/><path d="M537.89,136.23l-22.69,17.2V73.88H483.75V87.34h18.08v76.22L494.6,169l7.39,9.76,37.11-28.13V136.81A.74.74,0,0,0,537.89,136.23Z"/><path d="M503.6,61.83h14.71a.74.74,0,0,0,.63-1.14L500.39,32.35H485.68a.74.74,0,0,0-.65,1.11C485.33,33.93,503.6,61.83,503.6,61.83Z"/><rect x="654.33" y="38.33" width="106.22" height="13.46"/><path d="M692.86,102.65h82.65V89.19H639.37v13.46h37.77c-7.8,20.49-27.38,71.89-27.51,72.26a.72.72,0,0,0,.69,1H767.74a.75.75,0,0,0,.68-1.07l-17.51-46H736.3a.75.75,0,0,0-.71,1c.19.48,12.39,32.61,12.39,32.61H670.12Z"/><path class="cls-1" d="M248.41,169.83c-5.11,5-14.21,10.79-29.16,11.3-6.91.23-15,.26-18.67.26h-80.3l57.59-55.94c2.65-2.57,8.61-8.27,13.75-12.9,11.28-10.15,21.43-12.2,28.61-12.13a40.46,40.46,0,0,1,28.18,69.41m19.23-75.5a66.15,66.15,0,0,0-47.31-20c-16.07,0-29.91,5.54-42,15.38-5.27,4.29-10.79,9.42-17.74,16.17-3.45,3.36-103.53,100.46-103.53,100.46a156.54,156.54,0,0,0,18.9,1c6,0,121,0,125.82,0,9.69,0,16,0,22.76-.5,15.53-1.13,30.21-6.83,42.07-18.48A66.49,66.49,0,0,0,267.64,94.33Z"/><path class="cls-2" d="M106.18,88.09C94.42,79.28,81.25,74.36,66.32,74.38A66.5,66.5,0,0,0,20,188.44a64.54,64.54,0,0,0,37.05,17.94l25.76-25c-4.16,0-10.14-.07-15.45-.25-14.94-.51-24-6.25-29.15-11.3a40.46,40.46,0,0,1,28.18-69.41c7,0,16.62,2,27.43,11,5.16,4.28,16.62,14.36,21.65,18.89a.62.62,0,0,0,.87,0L134.11,113a.64.64,0,0,0,0-1c-8.53-7.71-20.62-18.5-27.91-23.92"/><path class="cls-3" d="M227.3,59.36a89.08,89.08,0,0,0-172,16,65.32,65.32,0,0,1,11-.93,64.36,64.36,0,0,1,15,1.76,2.8,2.8,0,0,1,.28.06A63,63,0,0,1,200.56,62.78a.58.58,0,0,0,.7.38,76.32,76.32,0,0,1,25.14-2.62c.85.07,1.18-.41.9-1.18"/></svg>