<svg width="485" height="132" xmlns="http://www.w3.org/2000/svg" xml:space="preserve" style="enable-background:new 0 0 531.69 198.43;" version="1.1">
 <style type="text/css">.st0{fill:#9f9f9f;}</style>

 <g>
  <title>background</title>
  <rect fill="none" id="canvas_background" height="134" width="487" y="-1" x="-1"/>
 </g>
 <g>
  <title>Layer 1</title>
  <path id="svg_1" d="m132.29,62.34c-1.19,-18.77 -10.34,-35.36 -24.11,-46.46c-11.15,-8.99 -25.34,-14.38 -40.79,-14.38c-0.55,0 -1.09,0.01 -1.63,0.02c-3.32,0.08 -6.57,0.41 -9.75,0.98c-30.49,5.38 -53.65,32 -53.65,64.04c0,1.87 0.08,3.73 0.24,5.57c2.5,29.51 24.7,53.4 53.41,58.47c2.38,0.42 4.8,0.72 7.26,0.86c0.83,0.05 1.66,0.09 2.5,0.11c0.54,0.01 1.08,0.02 1.63,0.02c34.04,0 61.97,-26.16 64.79,-59.46c0.16,-1.83 0.24,-3.69 0.24,-5.57c0,-1.42 -0.05,-2.82 -0.14,-4.2zm-76.27,32.5c-0.26,0.01 -0.53,0.01 -0.79,0.01c-14.56,0 -26.88,-9.57 -31.03,-22.76c-0.97,-3.08 -1.49,-6.35 -1.49,-9.75c0,-17.95 14.56,-32.52 32.51,-32.52c0.26,0 0.53,0 0.79,0.01c3.41,0.08 6.69,0.68 9.75,1.74c6.5,2.22 12.06,6.45 15.97,11.94c1.98,2.78 3.54,5.9 4.57,9.25c0.94,3.03 1.44,6.24 1.44,9.58l-9.75,0c0,-2.18 -0.31,-4.29 -0.88,-6.28c-0.92,-3.23 -2.55,-6.17 -4.69,-8.64c-1.86,-2.14 -4.12,-3.93 -6.65,-5.25c-2.93,-1.54 -6.24,-2.46 -9.75,-2.58c-0.26,-0.01 -0.52,-0.01 -0.79,-0.01c-12.57,0 -22.76,10.19 -22.76,22.76c0,3.49 0.79,6.8 2.19,9.75c3.65,7.69 11.49,13.01 20.57,13.01c0.27,0 0.53,-0.01 0.79,-0.01l0,9.75zm55.7,-17.92c-3.35,10.5 -13.18,18.09 -24.78,18.09c-3.13,0 -6.13,-0.55 -8.91,-1.57c-2.18,-0.8 -4.24,-1.88 -6.11,-3.21c-2.38,-1.68 -4.47,-3.76 -6.16,-6.13c-0.28,-0.39 -0.55,-0.79 -0.81,-1.2c-2.03,-3.2 -3.38,-6.87 -3.85,-10.82l9.87,0c0.33,1.71 0.92,3.32 1.74,4.8c1.61,2.91 4.09,5.26 7.09,6.72c0.57,0.28 1.15,0.53 1.76,0.73c1.68,0.6 3.49,0.92 5.37,0.92c7.92,0 14.52,-5.67 15.96,-13.17c0.2,-1 0.3,-2.04 0.3,-3.09c0,-2.37 -0.51,-4.63 -1.43,-6.67c-1.66,-3.71 -4.68,-6.68 -8.43,-8.28l3.54,-9.1c7.43,3.08 13.13,9.49 15.21,17.38c0.44,1.64 0.72,3.34 0.81,5.09c0.04,0.52 0.05,1.05 0.05,1.58c0,1.05 -0.07,2.07 -0.18,3.09c-0.18,1.68 -0.54,3.3 -1.04,4.84z" class="st0"/>
  <g id="svg_2">
   <g id="svg_3">
    <rect id="svg_4" height="6.34" width="94.12" class="st0" y="20.46" x="163.29"/>
   </g>
   <g id="svg_5">
    <path id="svg_6" d="m169.31,113.72l0,-6.34c6.49,0 11.77,-5.28 11.77,-11.77l0,-71.98l6.34,0l0,71.98c0,9.98 -8.12,18.11 -18.11,18.11z" class="st0"/>
   </g>
   <g id="svg_7">
    <path id="svg_8" d="m255.49,91.27l-6.34,0l0,-38.2c0,-5.06 -4.12,-9.18 -9.18,-9.18l-19.37,0c-5.06,0 -9.18,4.12 -9.18,9.18l0,38.2l-6.34,0l0,-38.2c0,-8.55 6.96,-15.51 15.51,-15.51l19.38,0c8.55,0 15.51,6.96 15.51,15.51l0,38.2l0.01,0z" class="st0"/>
   </g>
   <g id="svg_9">
    <rect id="svg_10" height="17.09" width="6.34" class="st0" y="23.63" x="227.12"/>
   </g>
   <g id="svg_11">
    <path id="svg_12" d="m206.43,113.84l-3.34,0l0,-6.34l3.34,0c6.3,0 12.9,-3.56 15.35,-8.29c3.49,-6.71 5.33,-14.25 5.33,-21.81l0,-26.13l6.34,0l0,26.13c0,8.58 -2.09,17.13 -6.05,24.74c-3.98,7.68 -13.57,11.7 -20.97,11.7z" class="st0"/>
   </g>
   <g id="svg_13">
    <path id="svg_14" d="m257.48,113.84l-3.34,0c-7.4,0 -16.98,-4.02 -20.98,-11.7c-3.96,-7.61 -6.05,-16.16 -6.05,-24.74l6.34,0c0,7.56 1.84,15.1 5.33,21.81c2.46,4.73 9.06,8.29 15.35,8.29l3.34,0l0,6.34l0.01,0z" class="st0"/>
   </g>
   <g id="svg_15">
    <rect id="svg_16" height="6.34" width="42.87" class="st0" y="27.89" x="274.07"/>
   </g>
   <g id="svg_17">
    <rect id="svg_18" height="61.38" width="6.34" class="st0" y="14.89" x="293.05"/>
   </g>
   <g id="svg_19">
    <rect id="svg_20" height="6.34" width="33.26" class="st0" transform="matrix(0.11,-0.9939,0.9939,0.11,194.7608,392.0006) " y="46.985071" x="325.728637"/>
   </g>
   <g id="svg_21">
    <rect id="svg_22" height="33.26" width="6.34" class="st0" transform="matrix(0.9939,-0.11,0.11,0.9939,-7.5075,38.3801) " y="37.060893" x="310.495485"/>
   </g>
   <g id="svg_23">
    <path id="svg_24" d="m352.9,77.14l-15.15,0c-7.52,0 -13.64,-6.12 -13.64,-13.63l0,-29.61c0,-7.52 6.12,-13.64 13.64,-13.64l15.15,0c7.52,0 13.64,6.12 13.64,13.64l0,29.61c0,7.52 -6.12,13.63 -13.64,13.63zm-15.15,-50.54c-4.02,0 -7.3,3.27 -7.3,7.3l0,29.61c0,4.02 3.27,7.3 7.3,7.3l15.15,0c4.02,0 7.3,-3.27 7.3,-7.3l0,-29.61c0,-4.02 -3.27,-7.3 -7.3,-7.3l-15.15,0z" class="st0"/>
   </g>
   <g id="svg_25">
    <g id="svg_26">
     <rect id="svg_27" height="6.34" width="17.8" class="st0" y="37.2" x="336.43"/>
    </g>
    <g id="svg_28">
     <rect id="svg_29" height="6.34" width="17.8" class="st0" y="53.87" x="336.43"/>
    </g>
   </g>
   <g id="svg_30">
    <path id="svg_31" d="m352.7,113.84l-37.98,0c-8,0 -14.5,-6.51 -14.5,-14.5l0,-16.14l6.34,0l0,16.13c0,4.5 3.66,8.17 8.17,8.17l37.98,0l0,6.34l-0.01,0z" class="st0"/>
   </g>
   <g id="svg_32">
    <rect id="svg_33" height="6.34" width="23.57" class="st0" transform="matrix(0.2529,-0.9675,0.9675,0.2529,114.4986,402.9877) " y="83.698593" x="326.836101"/>
   </g>
   <g id="svg_34">
    <rect id="svg_35" height="6.34" width="20.52" class="st0" y="86.2" x="321.58"/>
   </g>
   <g id="svg_36">
    <rect id="svg_37" height="24.75" width="6.34" class="st0" transform="matrix(0.9556,-0.2946,0.2946,0.9556,-19.7967,122.424) " y="75.874073" x="369.686666"/>
   </g>
   <g id="svg_38">
    <rect id="svg_39" height="6.34" width="71.83" class="st0" y="20.46" x="395.51"/>
   </g>
   <g id="svg_40">
    <rect id="svg_41" height="6.34" width="90.81" class="st0" y="57.44" x="386.02"/>
   </g>
   <g id="svg_42">
    <path id="svg_43" d="m463.12,113.64l-56,0c-4.5,0 -8.59,-2.29 -10.94,-6.14c-2.35,-3.84 -2.52,-8.53 -0.46,-12.53l17.68,-35.81l5.64,2.89l-17.68,35.81c-1.04,2.02 -0.95,4.39 0.23,6.33c1.19,1.94 3.25,3.1 5.53,3.1l56,0c1.51,0 2.88,-0.71 3.74,-1.95c0.81,-1.16 1.03,-2.57 0.63,-3.91l-7.8,-12.34l5.36,-3.39l8.18,12.94l0.12,0.31c1.24,3.34 0.76,7.08 -1.28,10.01c-2.04,2.94 -5.39,4.68 -8.95,4.68z" class="st0"/>
   </g>
  </g>
 </g>
</svg>
